{
  "accessors": [
    {
      "bufferView": 2,
      "componentType": 5126,
      "count": 32,
      "max": [
        1.3343738317489624,
        1.3360722064971924,
        20.160078048706055
      ],
      "min": [
        -10.238313674926758,
        -3.410071849822998,
        -0.07378868758678436
      ],
      "type": "VEC3"
    },
    {
      "bufferView": 2,
      "byteOffset": 384,
      "componentType": 5126,
      "count": 32,
      "max": [
        0.9981503486633301,
        0.9990641474723816,
        0.9733899235725403
      ],
      "min": [
        -0.9986693859100342,
        -0.9962769150733948,
        -0.994945228099823
      ],
      "type": "VEC3"
    },
    {
      "bufferView": 1,
      "componentType": 5126,
      "count": 32,
      "max": [
        0.45309683680534363,
        0.39771193265914917
      ],
      "min": [
        0.23632001876831055,
        0.006895899772644043
      ],
      "type": "VEC2"
    },
    {
      "bufferView": 0,
      "componentType": 5125,
      "count": 60,
      "type": "SCALAR"
    },
    {
      "bufferView": 2,
      "byteOffset": 768,
      "componentType": 5126,
      "count": 543,
      "max": [
        23.910856246948242,
        9.994125366210938,
        9.35966682434082
      ],
      "min": [
        -78.54910278320313,
        -2.8676722049713135,
        -24.61484146118164
      ],
      "type": "VEC3"
    },
    {
      "bufferView": 2,
      "byteOffset": 7284,
      "componentType": 5126,
      "count": 543,
      "max": [
        0.9985702633857727,
        0.9989092350006104,
        0.9995697736740112
      ],
      "min": [
        -0.9985507726669312,
        -0.9988937377929688,
        -0.9984768033027649
      ],
      "type": "VEC3"
    },
    {
      "bufferView": 1,
      "byteOffset": 256,
      "componentType": 5126,
      "count": 543,
      "max": [
        0.434814453125,
        0.495361328125
      ],
      "min": [
        0.004100799560546875,
        0.004436492919921875
      ],
      "type": "VEC2"
    },
    {
      "bufferView": 0,
      "byteOffset": 240,
      "componentType": 5125,
      "count": 1458,
      "type": "SCALAR"
    },
    {
      "bufferView": 2,
      "byteOffset": 13800,
      "componentType": 5126,
      "count": 32,
      "max": [
        1.891181230545044,
        0.08790142834186554,
        1.3682076930999756
      ],
      "min": [
        -1.3275477886199951,
        -5.576439380645752,
        -1.9704744815826416
      ],
      "type": "VEC3"
    },
    {
      "bufferView": 2,
      "byteOffset": 14184,
      "componentType": 5126,
      "count": 32,
      "max": [
        0.9540664553642273,
        0.15851551294326782,
        0.9988046884536743
      ],
      "min": [
        -0.9627884030342102,
        -0.9971509575843811,
        -0.989484965801239
      ],
      "type": "VEC3"
    },
    {
      "bufferView": 1,
      "byteOffset": 4600,
      "componentType": 5126,
      "count": 32,
      "max": [
        0.19776426255702972,
        0.35829687118530273
      ],
      "min": [
        0.1324802041053772,
        0.09795378148555756
      ],
      "type": "VEC2"
    },
    {
      "bufferView": 0,
      "byteOffset": 6072,
      "componentType": 5125,
      "count": 84,
      "type": "SCALAR"
    }
  ],
  "asset": {
    "extras": {
      "author": "LittleAssetsStudio (https://sketchfab.com/LittleAssetsStudio)",
      "license": "SKETCHFAB Standard (https://sketchfab.com/licenses)",
      "source": "https://sketchfab.com/3d-models/stylized-assault-rifle-mobile-ready-game-asset-58ba6388a73f45dcaae1fac918238700",
      "title": "Stylized Assault Rifle | Mobile-Ready Game Asset"
    },
    "generator": "Sketchfab-16.62.0",
    "version": "2.0"
  },
  "bufferViews": [
    {
      "buffer": 0,
      "byteLength": 6408,
      "name": "floatBufferViews",
      "target": 34963
    },
    {
      "buffer": 0,
      "byteLength": 4856,
      "byteOffset": 6408,
      "byteStride": 8,
      "name": "floatBufferViews",
      "target": 34962
    },
    {
      "buffer": 0,
      "byteLength": 14568,
      "byteOffset": 11264,
      "byteStride": 12,
      "name": "floatBufferViews",
      "target": 34962
    }
  ],
  "buffers": [
    {
      "byteLength": 25832,
      "uri": "scene.bin"
    }
  ],
  "images": [
    {
      "uri": "textures/Wpn_Pack1_BC_baseColor.png"
    }
  ],
  "materials": [
    {
      "doubleSided": true,
      "name": "Wpn_Pack1_BC",
      "pbrMetallicRoughness": {
        "baseColorTexture": {
          "index": 0
        },
        "metallicFactor": 0.0,
        "roughnessFactor": 0.6
      }
    }
  ],
  "meshes": [
    {
      "name": "Ammo_Wpn_Pack1_BC_0",
      "primitives": [
        {
          "attributes": {
            "NORMAL": 1,
            "POSITION": 0,
            "TEXCOORD_0": 2
          },
          "indices": 3,
          "material": 0,
          "mode": 4
        }
      ]
    },
    {
      "name": "Body_Wpn_Pack1_BC_0",
      "primitives": [
        {
          "attributes": {
            "NORMAL": 5,
            "POSITION": 4,
            "TEXCOORD_0": 6
          },
          "indices": 7,
          "material": 0,
          "mode": 4
        }
      ]
    },
    {
      "name": "Zatvor_Wpn_Pack1_BC_0",
      "primitives": [
        {
          "attributes": {
            "NORMAL": 9,
            "POSITION": 8,
            "TEXCOORD_0": 10
          },
          "indices": 11,
          "material": 0,
          "mode": 4
        }
      ]
    }
  ],
  "nodes": [
    {
      "children": [
        1
      ],
      "matrix": [
        1.0,
        0.0,
        0.0,
        0.0,
        0.0,
        2.220446049250313e-16,
        -1.0,
        0.0,
        0.0,
        1.0,
        2.220446049250313e-16,
        0.0,
        0.0,
        0.0,
        0.0,
        1.0
      ],
      "name": "Sketchfab_model"
    },
    {
      "children": [
        2
      ],
      "matrix": [
        0.009999999776482582,
        0.0,
        0.0,
        0.0,
        0.0,
        0.0,
        0.009999999776482582,
        0.0,
        0.0,
        -0.009999999776482582,
        0.0,
        0.0,
        0.0,
        0.0,
        0.0,
        1.0
      ],
      "name": "AssaultScar.fbx"
    },
    {
      "children": [
        3
      ],
      "name": "RootNode"
    },
    {
      "children": [
        4,
        6,
        8
      ],
      "name": "AssaultScar"
    },
    {
      "children": [
        5
      ],
      "matrix": [
        1.0,
        0.0,
        0.0,
        0.0,
        0.0,
        1.0,
        0.0,
        0.0,
        0.0,
        0.0,
        1.0,
        0.0,
        -21.414888381958008,
        3.9326422214508057,
        -5.260717868804932,
        1.0
      ],
      "name": "Ammo"
    },
    {
      "mesh": 0,
      "name": "Ammo_Wpn_Pack1_BC_0"
    },
    {
      "children": [
        7
      ],
      "matrix": [
        1.0,
        0.0,
        0.0,
        0.0,
        0.0,
        1.0,
        0.0,
        0.0,
        0.0,
        0.0,
        1.0,
        0.0,
        4.141062674989371e-07,
        0.827832818031311,
        1.8645625114440918,
        1.0
      ],
      "name": "Body"
    },
    {
      "mesh": 1,
      "name": "Body_Wpn_Pack1_BC_0"
    },
    {
      "children": [
        9
      ],
      "matrix": [
        1.0,
        0.0,
        0.0,
        0.0,
        0.0,
        1.0,
        0.0,
        0.0,
        0.0,
        0.0,
        1.0,
        0.0,
        -29.033702850341797,
        1.5281811952590942,
        -9.635993003845215,
        1.0
      ],
      "name": "Zatvor"
    },
    {
      "mesh": 2,
      "name": "Zatvor_Wpn_Pack1_BC_0"
    }
  ],
  "samplers": [
    {
      "magFilter": 9729,
      "minFilter": 9987,
      "wrapS": 10497,
      "wrapT": 10497
    }
  ],
  "scene": 0,
  "scenes": [
    {
      "name": "Sketchfab_Scene",
      "nodes": [
        0
      ]
    }
  ],
  "textures": [
    {
      "sampler": 0,
      "source": 0
    }
  ]
}
