<?xml version="1.0" encoding="UTF-8"?>
<svg width="1600" height="400" viewBox="0 0 1600 400" fill="none" xmlns="http://www.w3.org/2000/svg">
  <defs>
    <linearGradient id="gw" x1="0" y1="0" x2="1600" y2="0" gradientUnits="userSpaceOnUse">
      <stop stop-color="#6EA8FF"/>
      <stop offset="1" stop-color="#7CF0FF"/>
    </linearGradient>
  </defs>
  <!-- Word: IZZA PAY -->
  <g transform="translate(80,65)">
    <!-- I -->
    <rect x="0" y="0" width="40" height="270" rx="10" fill="url(#gw)"/>
    <!-- Z -->
    <path d="M80 0h300c12 0 20 8 20 20v18c0 6-3 12-8 16L210 206h190c12 0 20 8 20 20v18c0 12-8 20-20 20H70c-12 0-20-8-20-20v-18c0-7 3-13 8-17L270 54H80c-12 0-20-8-20-20V20C60 8 68 0 80 0z" fill="url(#gw)"/>
    <!-- Z (second) -->
    <use href="#z2"/>
    <path id="z2" d="M430 0h300c12 0 20 8 20 20v18c0 6-3 12-8 16L560 206h190c12 0 20 8 20 20v18c0 12-8 20-20 20H420c-12 0-20-8-20-20v-18c0-7 3-13 8-17L620 54H430c-12 0-20-8-20-20V20c0-12 8-20 20-20z" fill="url(#gw)"/>
    <!-- A -->
    <path d="M820 270h-44a16 16 0 0 1-15-10l-88-238a16 16 0 0 1 15-22h46a16 16 0 0 1 15 11l23 66h122l23-66a16 16 0 0 1 15-11h46a16 16 0 0 1 15 22l-88 238a16 16 0 0 1-15 10h-44zm-18-96h80l-40-116-40 116z" fill="url(#gw)"/>
    <!-- SPACE -->
    <!-- P -->
    <path d="M1050 0h84c88 0 142 44 142 118s-54 118-142 118h-40v34c0 12-8 20-20 20h-24c-12 0-20-8-20-20V20c0-12 8-20 20-20zm64 60h-40v96h40c44 0 72-18 72-48s-28-48-72-48z" fill="url(#gw)"/>
    <!-- A (again) -->
    <path d="M1290 270h-44a16 16 0 0 1-15-10l-88-238a16 16 0 0 1 15-22h46a16 16 0 0 1 15 11l23 66h122l23-66a16 16 0 0 1 15-11h46a16 16 0 0 1 15 22l-88 238a16 16 0 0 1-15 10h-44zm-18-96h80l-40-116-40 116z" fill="url(#gw)"/>
    <!-- Y -->
    <path d="M1510 0h36c12 0 20 8 20 20v84l78 130c7 11-1 26-14 26h-30a16 16 0 0 1-14-8l-57-96-57 96a16 16 0 0 1-14 8h-30c-13 0-21-15-14-26l78-130V20c0-12 8-20 18-20z" fill="url(#gw)"/>
  </g>
</svg>
